<?xml version="1.0" standalone="no"?><!DOCTYPE svg PUBLIC "-//W3C//DTD SVG 1.1//EN" "http://www.w3.org/Graphics/SVG/1.1/DTD/svg11.dtd"><svg class="icon" width="64px" height="64.00px" viewBox="0 0 1024 1024" version="1.1" xmlns="http://www.w3.org/2000/svg"><path fill="#ffffff" d="M1024 977.454545H232.727273V651.636364h791.272727v325.818181z m-744.727273-46.545454h698.181818V698.181818H279.272727v232.727273z m93.090909-232.727273h-46.545454v-93.090909h46.545454v93.090909z m139.636364 0h-46.545455v-93.090909h46.545455v93.090909z m139.636364 0h-46.545455v-93.090909h46.545455v93.090909z m139.636363 0h-46.545454v-93.090909h46.545454v93.090909z m-23.272727-116.363636v116.363636h162.909091-46.545455v-93.090909h46.545455v93.090909zM372.363636 1024h-46.545454v-93.090909h46.545454v93.090909z m139.636364 0h-46.545455v-93.090909h46.545455v93.090909z m139.636364 0h-46.545455v-93.090909h46.545455v93.090909z m139.636363 0h-46.545454v-93.090909h46.545454v93.090909z m139.636364 0h-46.545455v-93.090909h46.545455v93.090909zM179.572364 787.409455A116.363636 116.363636 0 0 1 93.090909 674.909091V209.454545a116.503273 116.503273 0 0 1 116.363636-116.363636h465.454546a116.503273 116.503273 0 0 1 116.363636 116.363636v349.09091h-46.545454V209.454545a69.818182 69.818182 0 0 0-69.818182-69.818181H209.454545a69.818182 69.818182 0 0 0-69.818181 69.818181v465.454546a69.818182 69.818182 0 0 0 51.874909 67.490909zM256 69.818182H209.454545V0h46.545455v69.818182z m139.636364 0h-46.545455V0h46.545455v69.818182z m139.636363 0h-46.545454V0h46.545454v69.818182z m139.636364 0h-46.545455V0h46.545455v69.818182z m209.454545 186.181818h-69.818181V209.454545h69.818181v46.545455z m0 139.636364h-69.818181v-46.545455h69.818181v46.545455z m0 139.636363h-69.818181v-46.545454h69.818181v46.545454zM69.818182 256H0V209.454545h69.818182v46.545455z m0 139.636364H0v-46.545455h69.818182v46.545455z m0 139.636363H0v-46.545454h69.818182v46.545454z m0 139.636364H0v-46.545455h69.818182v46.545455z" /></svg>